<?xml version="1.0" encoding="utf-8"?>
<!-- Generator: Adobe Illustrator 22.1.0, SVG Export Plug-In . SVG Version: 6.00 Build 0)  -->
<svg version="1.1" id="Layer_1" xmlns="http://www.w3.org/2000/svg" xmlns:xlink="http://www.w3.org/1999/xlink" x="0px" y="0px"
	 viewBox="0 0 336.5 108.4" style="enable-background:new 0 0 336.5 108.4;" xml:space="preserve">
<style type="text/css">
	.st0{fill:#FFFFFF;}
</style>
<g>
	<path class="st0" d="M136.8,8.6c-12-0.9-24.1-1.1-36.2-1.1v0h-0.3c-3,0-5.9,0-8.9-0.1c-0.1,0-0.1,0-0.2,0.1h-3.1v12.4h0
		c-0.1,10.6,0,21.2,0,31.8c0,7.3,0,14.6,0,21.9h0v27.1h7.1c4.5,0.2,9.1,0,14.1,0c0-9.2,0-17.9,0-27.1c0-3.2,0-6.5,0-9.9
		c8.5,0,16,0.3,23.5-0.1c12.1-0.6,20.2-6.2,24.6-18.2C162.2,32.1,155.1,9.9,136.8,8.6z M136.1,37.3c-0.5,5.7-4,9-10.4,9.4
		c-5.1,0.3-10.3,0.1-16.1,0.1c0-7.7,0-14.7,0-22.7c6.1,0.3,12,0.1,17.8,1.1C134.2,26.4,136.7,30.6,136.1,37.3z"/>
	<path class="st0" d="M237.1,81.2h-43.9c0-6.6,0-12.5,0-18.8c13.2,0,25.9,0,39,0c0-6.6,0-12.6,0-19.4c-13.3,0-26.2,0-38.9,0
		c0-5.8,0-10.9,0-16.4c13.9,0,27.2,0,41.4,0V13.7c0-0.6,0-1.2,0.1-1.8c0-0.6,0-1.1-0.1-1.5V7h-62.8v0.7c0,6.3,0,12.5,0,18.8
		c0,18.3,0,36.5,0,54.7c0,6.4,0,12.8,0,19.1v0.5h19.8c6.4,0,12.7,0,19.1,0h19.1c1.5,0,2.7,0,3.6,0h3.6V81.2z"/>
	<path class="st0" d="M317.3,79.5l-3.2-2.5c-0.5,0.4-1,0.8-1.5,1.2l0.1,0.1c-0.1,0-0.2,0.1-0.3,0.2c-2,1.5-4.2,2.8-6.5,3.7
		c-0.4,0.2-0.7,0.3-1.1,0.4c0,0,0,0-0.1,0c-15.2,5.6-32.1-5.1-34.6-22.7c-0.3-1.9-0.4-3.8-0.4-5.6c0-1.8,0.1-3.7,0.4-5.6
		c2.5-17.7,19.3-28.3,34.6-22.7c0,0,0,0,0.1,0c0.4,0.1,0.7,0.3,1.1,0.4c2.3,0.9,4.5,2.2,6.5,3.7c0.1,0,0.2,0.1,0.3,0.2l-0.1,0.1
		c0.5,0.4,1,0.8,1.5,1.2l3.2-2.5c3.8-2.8,7.4-5.8,11-8.7l1.5-1.2l-1.2-1.5l-0.1,0C319.9,6.6,298,0.2,275,9.5
		c-16.2,6.6-26.9,24.1-27.2,44.7c0.2,20.7,10.9,38.2,27.2,44.7c22.9,9.3,44.8,2.9,53.6-8.2l0.1,0l1.2-1.5l-1.5-1.2
		C324.7,85.3,321.1,82.3,317.3,79.5z"/>
	<path class="st0" d="M69,58.1h0.1c-3.5-4.3-8.7-7.6-15.5-9.9C47.9,46.3,42,44.9,36.9,42c-2.7-1.5-5.8-3.8-5.5-8.8
		c0.3-4.4,3.5-6.6,7.8-7.6c9.2-2.2,16.8,1.1,23.8,7.5c4.7-5.5,9.2-10.7,13.6-15.9c-13.8-15.5-41-14.3-53.1-6.7
		C12.3,17.5,6.1,31.5,11.3,43.7c5.6,13.2,16.6,15.8,18.4,16.4c5.7,1.9,11.6,3.3,16.7,6.1c2.7,1.5,5.8,3.8,5.5,8.8
		c-0.3,4.4-3.5,6.6-7.8,7.6c-9.2,2.2-16.8-1.1-23.8-7.5C15.5,80.8,11,86.1,6.6,91.3c13.8,15.5,41,14.3,53.1,6.7
		C71,90.8,75.9,77.3,72,64.6C71.3,62.2,70.2,60,69,58.1z"/>
</g>
</svg>
